<svg width="24" height="24" viewBox="0 0 24 24" fill="none" xmlns="http://www.w3.org/2000/svg">
<g clip-path="url(#clip0_83_580)">
<path d="M21.8715 0.905518H2.12965C1.45344 0.905518 0.905273 1.45369 0.905273 2.12989V21.8718C0.905273 22.548 1.45344 23.0961 2.12965 23.0961H21.8715C22.5477 23.0961 23.0959 22.548 23.0959 21.8718V2.12989C23.0959 1.45369 22.5477 0.905518 21.8715 0.905518Z" fill="#3D5A98"/>
<path d="M16.215 23.0943V14.5012H19.0987L19.53 11.1524H16.215V9.01492C16.215 8.04555 16.485 7.38367 17.8743 7.38367H19.6481V4.38367C18.7892 4.29432 17.926 4.25176 17.0625 4.25617C14.5087 4.25617 12.75 5.81242 12.75 8.68305V11.1524H9.86621V14.5012H12.75V23.0943H16.215Z" fill="white"/>
</g>
<defs>
<clipPath id="clip0_83_580">
<rect width="24" height="24" fill="white"/>
</clipPath>
</defs>
</svg>
