<svg width="22" height="24" viewBox="0 0 22 24" fill="none" xmlns="http://www.w3.org/2000/svg">
<g clip-path="url(#clip0_83_586)">
<path d="M15.7025 8.64166C17.2483 9.74607 19.142 10.3959 21.1872 10.3959V6.46237C20.8001 6.46253 20.414 6.42214 20.0353 6.34188V9.43813C17.9903 9.43813 16.0969 8.78839 14.5508 7.68406V15.7113C14.5508 19.727 11.2937 22.9821 7.27627 22.9821C5.77727 22.9821 4.38394 22.5291 3.22656 21.7523C4.54756 23.1023 6.38976 23.9398 8.42778 23.9398C12.4455 23.9398 15.7027 20.6847 15.7027 16.6688V8.64166H15.7025ZM17.1235 4.67322C16.3335 3.81062 15.8147 2.69586 15.7025 1.46342V0.95752H14.611C14.8858 2.52389 15.823 3.8621 17.1235 4.67322ZM5.76758 18.6708C5.32618 18.0925 5.08759 17.3849 5.08871 16.6573C5.08871 14.8207 6.57845 13.3316 8.41644 13.3316C8.75891 13.3314 9.09937 13.384 9.42584 13.4874V9.46593C9.04433 9.41371 8.65933 9.39145 8.27451 9.39964V12.5297C7.94787 12.4263 7.60724 12.3737 7.2646 12.374C5.4267 12.374 3.93705 13.863 3.93705 15.6998C3.93705 16.9986 4.68162 18.1231 5.76758 18.6708Z" fill="#FF004F"/>
<path d="M14.5508 7.68397C16.097 8.78831 17.9902 9.43804 20.0354 9.43804V6.3418C18.8938 6.09873 17.8832 5.50254 17.1234 4.67322C15.8229 3.86202 14.8858 2.52381 14.611 0.95752H11.744V16.6687C11.7375 18.5003 10.2503 19.9833 8.4163 19.9833C7.33564 19.9833 6.37547 19.4685 5.76744 18.6708C4.68165 18.1231 3.93699 16.9985 3.93699 15.6999C3.93699 13.8632 5.42664 12.3741 7.26455 12.3741C7.61669 12.3741 7.95608 12.4289 8.27445 12.5298V9.39973C4.32753 9.48124 1.15332 12.7045 1.15332 16.6687C1.15332 18.6477 1.94375 20.4416 3.22667 21.7524C4.38405 22.5291 5.77729 22.9822 7.27638 22.9822C11.2939 22.9822 14.5509 19.7269 14.5509 15.7113L14.5508 7.68397Z" fill="black"/>
<path d="M20.0357 6.34179V5.50477C19.0063 5.50627 17.9972 5.21813 17.1238 4.6733C17.8969 5.51927 18.915 6.10265 20.0357 6.34196M14.6113 0.957517C14.5852 0.807854 14.5651 0.657193 14.5511 0.505903V0H10.5924V15.7113C10.5861 17.5428 9.09895 19.0258 7.26485 19.0258C6.7449 19.0266 6.23205 18.905 5.76775 18.671C6.37577 19.4686 7.33594 19.9833 8.4166 19.9833C10.2505 19.9833 11.7379 18.5004 11.7443 16.6688V0.9576L14.6113 0.957517ZM8.275 9.39972V8.5085C7.9442 8.46333 7.61072 8.44072 7.27685 8.4408C3.25892 8.4408 0.00195312 11.696 0.00195312 15.7113C0.00195312 18.2287 1.28198 20.4473 3.22714 21.7524C1.94422 20.4416 1.15379 18.6476 1.15379 16.6687C1.15379 12.7046 4.32791 9.48124 8.275 9.39972Z" fill="#00F2EA"/>
</g>
<defs>
<clipPath id="clip0_83_586">
<rect width="21.19" height="24" fill="white"/>
</clipPath>
</defs>
</svg>
